<?xml version="1.0" standalone="no"?>
<!DOCTYPE svg PUBLIC "-//W3C//DTD SVG 20010904//EN"
 "http://www.w3.org/TR/2001/REC-SVG-20010904/DTD/svg10.dtd">
<svg version="1.0" xmlns="http://www.w3.org/2000/svg"
 width="832.000000pt" height="832.000000pt" viewBox="0 0 832.000000 832.000000"
 preserveAspectRatio="xMidYMid meet">
<metadata>
Created by potrace 1.14, written by Peter Selinger 2001-2017
</metadata>
<g transform="translate(0.000000,832.000000) scale(0.100000,-0.100000)"
fill="#000000" stroke="none">
<path d="M407 8098 c-111 -24 -207 -118 -235 -230 -9 -36 -12 -885 -12 -3491
0 -1894 3 -3447 7 -3450 3 -4 8 -20 9 -36 11 -97 113 -333 174 -401 8 -10 29
-34 45 -55 46 -59 164 -156 246 -202 75 -43 216 -97 279 -107 19 -4 53 -9 75
-13 54 -9 6152 -8 6241 1 40 4 103 16 140 27 38 11 74 21 79 22 6 1 38 16 70
32 33 16 62 30 65 30 19 1 145 100 205 159 129 129 206 263 255 446 24 90 35
254 29 425 -1 6 0 37 0 70 0 33 1 83 1 110 0 28 1 71 1 97 0 26 -2 52 -6 58
-3 5 -1 10 5 10 6 0 8 5 5 11 -4 6 -7 32 -6 57 1 41 0 198 0 227 -1 6 0 37 0
70 0 33 1 83 1 110 0 28 1 71 1 97 0 26 -2 52 -6 58 -3 5 -1 10 5 10 6 0 8 5
5 11 -4 6 -7 32 -6 57 1 41 0 198 0 227 -1 6 0 37 0 70 0 33 1 83 1 110 0 28
1 71 1 97 0 26 -2 52 -6 58 -3 5 -1 10 5 10 6 0 8 5 5 11 -4 6 -7 32 -6 57 3
131 2 215 -3 219 -2 2 -1 17 3 31 4 15 4 39 0 54 -4 16 -3 30 1 33 5 3 5 18 1
33 -5 15 -5 36 -1 47 4 11 4 32 -1 47 -4 15 -4 30 1 33 5 3 5 18 0 34 -4 16
-6 31 -4 34 2 2 4 28 4 58 0 67 0 139 1 201 0 26 -2 52 -6 58 -3 5 -1 10 5 10
6 0 8 5 5 11 -4 6 -7 32 -6 57 3 131 2 215 -3 219 -2 2 -1 17 3 31 4 15 4 39
0 54 -4 16 -3 30 1 33 5 3 5 18 1 33 -5 15 -5 36 -1 47 4 11 4 32 -1 47 -4 15
-4 30 1 33 5 3 5 18 2 33 -4 15 -6 41 -5 57 6 56 5 124 -2 135 -3 5 -1 10 5
10 6 0 8 5 4 11 -8 13 -9 107 -1 115 3 3 1 18 -3 34 -4 16 -6 31 -2 34 8 8 5
102 -3 116 -3 5 -1 10 5 10 6 0 8 5 5 11 -4 6 -7 34 -6 62 3 122 2 147 -3 156
-4 5 -2 12 3 15 5 4 6 18 2 34 -5 15 -5 36 -1 47 4 11 4 32 -1 47 -4 15 -4 30
1 33 5 3 5 18 0 34 -4 16 -6 31 -4 34 2 2 4 28 4 58 0 67 0 139 1 201 0 26 -2
52 -6 58 -3 5 -1 10 5 10 6 0 8 5 5 11 -4 6 -7 32 -6 57 3 131 2 215 -3 219
-2 2 -1 17 3 31 4 15 4 39 0 54 -4 16 -3 30 1 33 5 3 5 18 1 33 -5 15 -5 36
-1 47 4 11 4 32 -1 47 -4 15 -4 30 1 33 5 3 5 18 2 33 -4 15 -6 41 -5 57 6 56
5 124 -2 135 -3 5 -1 10 5 10 6 0 8 5 4 11 -8 13 -9 107 -1 115 3 3 1 18 -3
34 -4 16 -6 31 -2 34 8 8 5 102 -3 116 -3 5 -1 10 5 10 6 0 8 5 5 11 -4 6 -7
34 -6 62 3 123 2 147 -4 157 -3 5 -1 10 5 10 6 0 9 4 5 9 -3 5 -7 40 -9 78
-11 186 -65 338 -181 509 -42 62 -164 178 -240 228 -66 44 -164 97 -185 101
-3 0 -36 10 -75 22 -38 12 -92 25 -120 30 -66 10 -3074 10 -3144 -1 -173 -25
-370 -124 -507 -253 -49 -46 -144 -166 -144 -182 0 -6 -4 -11 -10 -11 -5 0
-10 -6 -10 -14 0 -8 -4 -16 -8 -18 -9 -3 -81 -172 -87 -203 -2 -11 -4 -21 -5
-22 -4 -5 -17 -73 -26 -133 -7 -51 -7 -3036 0 -3095 8 -65 14 -97 30 -162 15
-61 83 -215 98 -221 4 -2 8 -9 8 -16 0 -7 9 -23 20 -36 11 -13 20 -27 20 -31
0 -17 179 -189 239 -229 114 -76 264 -135 401 -156 25 -4 504 -8 1065 -9 561
-2 1032 -5 1047 -9 63 -15 133 -67 179 -133 53 -76 55 -96 54 -676 l0 -535
-35 -68 c-26 -51 -49 -78 -90 -110 -30 -23 -58 -40 -62 -37 -5 2 -8 0 -8 -5 0
-5 -6 -9 -12 -10 -7 0 -35 -4 -63 -9 -63 -11 -4188 -9 -4235 1 -91 21 -175 92
-218 185 l-26 56 -1 2940 c-1 1617 -5 2951 -9 2965 -35 116 -119 206 -221 235
-38 11 -1058 14 -1108 3z m5842 -1600 c100 -26 179 -93 221 -188 l24 -55 1
-672 1 -671 -26 -4 c-14 -2 -313 -3 -665 -2 l-641 1 -65 31 c-89 42 -146 110
-177 208 -6 19 -10 291 -10 696 l-1 666 651 0 c368 0 667 -4 687 -10z"/>
</g>
</svg>
